<!-- Generator: Adobe Illustrator 22.1.0, SVG Export Plug-In  -->
<svg version="1.1"
	 xmlns="http://www.w3.org/2000/svg" xmlns:xlink="http://www.w3.org/1999/xlink" xmlns:a="http://ns.adobe.com/AdobeSVGViewerExtensions/3.0/"
	 x="0px" y="0px" width="65.277px" height="67.954px" viewBox="0 0 65.277 67.954"
	 style="enable-background:new 0 0 65.277 67.954;" xml:space="preserve">
<style type="text/css">
	.st0{opacity:0.7;}
	.st1{fill:#FCB316;}
</style>
<defs>
</defs>
<g>
	<g class="st0">
	</g>
	<g>
		<g>
			<path class="st1" d="M38.115,16.623v-0.336c0-1.125-0.918-2.04-2.041-2.04h-5.468H29.74v4.416h6.333
				C37.197,18.663,38.115,17.748,38.115,16.623z"/>
		</g>
		<g>
			<path class="st1" d="M32.535,0C21.083,0,11.799,9.285,11.799,20.738c0,11.451,9.284,20.736,20.737,20.736
				c11.453,0,20.737-9.285,20.737-20.736C53.272,9.285,43.988,0,32.535,0z M42.955,25.372c0,3.504-2.851,6.355-6.357,6.355h-0.154
				v1.876h-4.081v-1.876H30.69v1.876h-4.08v-1.876h-0.951h-2.024v-4.08h2.024v-4.903v-4.081v-4.416h-2.024v-4.08h2.024h0.951V7.871
				h4.08v2.297h1.673V7.871h4.081v2.316c3.202,0.192,5.752,2.851,5.752,6.101v0.336c0,1.408-0.484,2.703-1.287,3.738
				c1.256,1.161,2.047,2.817,2.047,4.657V25.372z"/>
		</g>
		<g>
			<path class="st1" d="M36.598,22.744h-0.524H29.74v4.903h0.865h5.992c1.255,0,2.275-1.02,2.275-2.274v-0.354
				C38.873,23.764,37.852,22.744,36.598,22.744z"/>
		</g>
	</g>
	<g>
		<path class="st1" d="M0,54.673h7.482c1.222,0,2.12,0.278,2.693,0.832c0.573,0.555,0.86,1.4,0.86,2.534
			c0,0.748-0.162,1.356-0.486,1.824c-0.324,0.468-0.723,0.795-1.197,0.982c1.01,0.274,1.696,0.948,2.057,2.02
			c0.124,0.387,0.187,0.836,0.187,1.347c0,1.222-0.287,2.12-0.86,2.693c-0.574,0.574-1.472,0.86-2.693,0.86H0V54.673z M7.669,58.414
			c0-0.748-0.374-1.122-1.122-1.122h-3.18v2.619h3.18c0.748,0,1.122-0.374,1.122-1.122V58.414z M8.23,63.652
			c0-0.748-0.374-1.122-1.122-1.122H3.367v2.619h3.741c0.748,0,1.122-0.374,1.122-1.122V63.652z"/>
		<path class="st1" d="M17.208,58.227v9.539h-3.273v-7.014h-1.403v-2.525H17.208z M13.935,54.487h3.273v2.618h-3.273V54.487z"/>
		<path class="st1" d="M25.999,67.766c-1.21,0.124-2.394,0.187-3.554,0.187c-0.848,0-1.528-0.256-2.039-0.767
			c-0.511-0.511-0.767-1.191-0.767-2.039v-4.769h-1.122v-2.525h1.122l0.374-2.245h2.899v2.245h2.338v2.525h-2.338v4.302
			c0,0.187,0.062,0.343,0.187,0.468c0.124,0.125,0.281,0.187,0.468,0.187h2.431V67.766z"/>
		<path class="st1" d="M35.912,67.579c-2.332,0.249-4.389,0.374-6.172,0.374c-0.848,0-1.528-0.256-2.039-0.767
			c-0.512-0.511-0.767-1.191-0.767-2.039v-4.302c0-0.935,0.265-1.668,0.795-2.198c0.53-0.53,1.262-0.795,2.198-0.795h5.985v2.525
			h-4.957c-0.499,0-0.748,0.25-0.748,0.748v3.647c0,0.187,0.062,0.343,0.187,0.468c0.125,0.125,0.281,0.187,0.468,0.187
			c1.122,0,2.806-0.094,5.05-0.281V67.579z"/>
		<path class="st1" d="M47.508,64.961c0,0.935-0.265,1.668-0.795,2.198c-0.53,0.53-1.262,0.795-2.198,0.795h-4.302
			c-0.935,0-1.668-0.265-2.198-0.795c-0.53-0.53-0.795-1.263-0.795-2.198v-4.302c0-0.935,0.265-1.668,0.795-2.198
			c0.53-0.53,1.262-0.795,2.198-0.795h4.302c0.935,0,1.668,0.265,2.198,0.795c0.53,0.53,0.795,1.262,0.795,2.198V64.961z
			 M44.235,60.939c0-0.499-0.25-0.748-0.748-0.748h-2.244c-0.499,0-0.748,0.25-0.748,0.748v3.741c0,0.499,0.249,0.748,0.748,0.748
			h2.244c0.499,0,0.748-0.249,0.748-0.748V60.939z"/>
		<path class="st1" d="M53.306,58.227v9.539h-3.273v-7.014H48.63v-2.525H53.306z M50.033,54.487h3.273v2.618h-3.273V54.487z"/>
		<path class="st1" d="M60.694,60.378c-0.661,0-1.409,0.125-2.245,0.374v7.014h-3.273v-9.913h2.899l0.187,0.935
			c0.586-0.386,1.188-0.67,1.805-0.851c0.617-0.181,1.138-0.271,1.562-0.271h0.842c0.848,0,1.527,0.256,2.039,0.767
			c0.511,0.511,0.767,1.191,0.767,2.039v7.295h-3.273v-6.734c0-0.187-0.062-0.343-0.187-0.468c-0.125-0.124-0.281-0.187-0.468-0.187
			H60.694z"/>
	</g>
	<g>
		<path class="st1" d="M10.607,46.043h0.981l0.222,3.977l2.368-3.993h0.797l0.261,3.993l2.345-3.977h1.073l-3.318,5.403h-0.866
			l-0.276-3.809l-2.314,3.809h-0.851L10.607,46.043z"/>
		<path class="st1" d="M19.563,46.043h3.939l-0.23,0.843h-2.996L19.9,48.288h2.659l-0.23,0.835H19.67l-0.383,1.441h3.042
			l-0.23,0.843h-3.977L19.563,46.043z"/>
		<path class="st1" d="M28.757,46.004h0.904l0.912,5.403h-0.966l-0.207-1.295h-2.536l-0.897,1.295h-1.019L28.757,46.004z
			 M29.286,49.277l-0.345-2.169l-1.502,2.169H29.286z"/>
		<path class="st1" d="M31.346,49.215c0-1.724,1.449-3.265,3.242-3.265c1.012,0,1.694,0.452,2.092,1.15l-0.782,0.529
			c-0.322-0.49-0.713-0.812-1.418-0.812c-1.15,0-2.154,1.103-2.154,2.36c0,0.882,0.606,1.456,1.456,1.456
			c0.605,0,1.004-0.245,1.425-0.613l0.621,0.628c-0.506,0.49-1.134,0.851-2.061,0.851C32.388,51.499,31.346,50.626,31.346,49.215z"
			/>
		<path class="st1" d="M36.77,49.215c0-1.724,1.449-3.265,3.242-3.265c1.012,0,1.694,0.452,2.092,1.15l-0.782,0.529
			c-0.322-0.49-0.713-0.812-1.418-0.812c-1.15,0-2.154,1.103-2.154,2.36c0,0.882,0.606,1.456,1.456,1.456
			c0.605,0,1.004-0.245,1.425-0.613l0.621,0.628c-0.506,0.49-1.134,0.851-2.061,0.851C37.812,51.499,36.77,50.626,36.77,49.215z"/>
		<path class="st1" d="M43.374,46.043h3.939l-0.23,0.843h-2.996l-0.376,1.402h2.659l-0.23,0.835h-2.659l-0.383,1.441h3.042
			l-0.23,0.843h-3.977L43.374,46.043z"/>
		<path class="st1" d="M48.431,46.043h1.694c0.728,0,1.257,0.153,1.625,0.529c0.26,0.26,0.398,0.613,0.398,1.057
			c0,1.295-1.103,2.038-2.621,2.038h-1.119l-0.468,1.74h-0.95L48.431,46.043z M49.573,48.832c0.981,0,1.594-0.414,1.594-1.126
			c0-0.215-0.069-0.391-0.207-0.529c-0.184-0.184-0.467-0.276-0.866-0.276h-0.95l-0.514,1.931H49.573z"/>
		<path class="st1" d="M54.4,46.916h-1.709l0.238-0.874h4.353l-0.238,0.874h-1.701l-1.211,4.491h-0.943L54.4,46.916z"/>
	</g>
</g>
</svg>